<?xml version="1.0" standalone="no"?>
<!DOCTYPE svg PUBLIC "-//W3C//DTD SVG 20010904//EN"
 "http://www.w3.org/TR/2001/REC-SVG-20010904/DTD/svg10.dtd">
<svg version="1.0" xmlns="http://www.w3.org/2000/svg"
 width="717.000000pt" height="541.000000pt" viewBox="0 0 717.000000 541.000000"
 preserveAspectRatio="xMidYMid meet">

<g transform="translate(0.000000,541.000000) scale(0.100000,-0.100000)"
fill="#000000" stroke="none">
<path d="M1335 4529 c-1156 -942 -1167 -950 -1162 -955 3 -3 119 -23 258 -44
140 -22 266 -42 280 -44 26 -5 27 -4 34 59 l7 64 216 152 c493 346 588 412
601 417 12 4 13 -14 8 -119 -15 -294 -59 -1540 -55 -1544 3 -3 77 20 165 51
l161 56 6 116 c3 64 15 446 26 847 23 796 25 852 43 852 7 0 112 70 235 157
l224 156 901 -235 c496 -129 914 -242 928 -249 26 -14 956 -255 1140 -296 l96
-21 6 -96 c4 -53 9 -98 11 -101 3 -2 163 49 356 113 193 64 350 119 347 121
-3 3 -4072 1154 -4079 1154 -2 0 -340 -275 -753 -611z"/>
<path d="M2480 4371 c0 -72 3 -131 6 -131 5 0 399 -90 677 -155 l59 -14 -3
103 c-1 56 1 108 5 114 10 16 36 15 55 -2 21 -18 270 -78 339 -81 30 -2 61
-10 70 -18 24 -20 291 -84 326 -77 21 3 -207 63 -740 194 -423 104 -775 191
-781 194 -10 3 -13 -26 -13 -127z"/>
<path d="M2188 4410 c-60 -38 -108 -72 -108 -74 0 -2 23 -9 51 -15 51 -11 53
-11 110 26 58 38 59 39 59 86 0 26 -1 47 -2 47 -2 0 -51 -32 -110 -70z"/>
<path d="M2160 3826 l0 -64 50 -11 c82 -18 80 -19 80 53 l0 63 -57 12 c-31 6
-60 11 -65 11 -4 0 -8 -29 -8 -64z"/>
<path d="M1286 3805 c-43 -29 -83 -58 -88 -63 -8 -8 -80 -1359 -73 -1370 3 -3
178 60 188 68 4 4 10 128 12 276 5 249 32 945 38 950 1 1 38 24 82 50 77 47
79 49 48 52 -24 2 -51 -9 -112 -47 l-81 -50 0 29 c0 23 7 33 30 45 17 9 35 27
40 41 12 30 13 74 3 73 -5 0 -43 -24 -87 -54z"/>
<path d="M2470 3766 c0 -37 4 -66 10 -66 9 0 11 18 13 99 1 14 -4 26 -11 29
-9 3 -12 -15 -12 -62z"/>
<path d="M2530 3756 l0 -63 59 -12 c59 -12 61 -11 128 22 51 26 76 33 102 29
26 -3 32 -1 29 9 -3 9 -51 23 -134 40 -71 14 -141 29 -156 32 l-28 7 0 -64z"/>
<path d="M4244 3759 c3 -17 6 -46 6 -65 0 -35 4 -37 73 -50 l38 -6 -3 63 -3
63 -55 12 c-30 7 -57 13 -59 14 -2 0 -1 -14 3 -31z"/>
<path d="M4390 3694 l0 -63 45 16 c43 14 45 17 45 52 0 36 -2 38 -45 48 l-45
10 0 -63z"/>
<path d="M2892 3728 c5 -15 164 -49 197 -42 39 8 12 20 -85 38 -110 19 -117
19 -112 4z"/>
<path d="M1050 3654 l-95 -64 -11 -213 c-6 -116 -22 -406 -35 -644 -12 -238
-21 -434 -18 -437 2 -2 47 10 99 28 89 31 95 35 97 62 7 75 64 1327 61 1329
-2 1 -46 -26 -98 -61z"/>
<path d="M2968 3628 c-64 -30 -88 -46 -88 -60 0 -23 -1 -23 69 7 42 17 69 23
95 18 l36 -6 0 42 c0 27 -4 41 -12 40 -7 0 -52 -19 -100 -41z"/>
<path d="M1458 3622 c-21 -13 -28 -24 -28 -49 0 -26 4 -33 19 -33 11 0 26 -3
35 -6 13 -5 16 3 16 50 0 31 -3 56 -7 56 -5 0 -20 -8 -35 -18z"/>
<path d="M5213 3573 l-42 -4 5 -47 c2 -26 11 -209 20 -407 9 -198 17 -361 19
-363 1 -1 26 -6 54 -11 l52 -8 -6 81 c-9 122 -35 664 -35 718 0 33 -4 47 -12
46 -7 -1 -32 -3 -55 -5z"/>
<path d="M2752 3531 c-45 -21 -85 -40 -88 -43 -2 -3 9 -8 25 -10 45 -7 155 42
159 70 4 28 2 28 -96 -17z"/>
<path d="M2156 3518 c-3 -13 -6 -37 -6 -55 l0 -32 63 28 c77 34 85 56 25 66
-24 3 -50 9 -59 11 -11 3 -19 -3 -23 -18z"/>
<path d="M2470 3500 c0 -5 5 -10 10 -10 6 0 10 5 10 10 0 6 -4 10 -10 10 -5 0
-10 -4 -10 -10z"/>
<path d="M2520 3492 c0 -20 93 -31 105 -12 3 6 -2 10 -12 10 -10 0 -35 3 -55
6 -23 4 -38 3 -38 -4z"/>
<path d="M2722 3413 l3 -58 53 -9 c29 -5 54 -7 56 -5 2 2 6 26 7 54 l3 49 -39
8 c-22 4 -50 10 -63 13 -22 5 -23 4 -20 -52z"/>
<path d="M2558 3443 c-51 -20 -52 -50 -3 -59 44 -8 47 -5 43 39 l-3 35 -37
-15z"/>
<path d="M2880 3384 c0 -30 1 -54 3 -54 1 0 40 -7 87 -15 116 -20 110 -22 110
35 0 56 11 50 -122 74 l-78 14 0 -54z"/>
<path d="M818 3368 c-49 -30 -61 -48 -32 -48 16 0 134 67 134 76 0 14 -63 -2
-102 -28z"/>
<path d="M875 3319 c-19 -12 -24 -19 -14 -19 9 0 27 9 40 20 30 25 13 25 -26
-1z"/>
<path d="M2625 3330 c-6 -10 178 -40 188 -31 4 4 -36 14 -88 22 -53 9 -98 12
-100 9z"/>
<path d="M2850 3292 c0 -5 37 -14 83 -21 45 -7 96 -15 112 -18 17 -3 27 -3 23
2 -6 6 -47 15 -180 39 -21 4 -38 3 -38 -2z"/>
<path d="M4285 3245 c-16 -7 -23 -14 -15 -14 8 0 29 6 45 14 17 7 23 14 15 14
-8 0 -28 -6 -45 -14z"/>
<path d="M3125 3240 c17 -4 48 -8 70 -8 l40 0 -40 9 c-22 4 -53 8 -70 7 l-30
0 30 -8z"/>
<path d="M4200 2308 l0 -83 958 -98 c526 -54 972 -101 991 -104 l34 -6 -7 74
c-4 41 -8 75 -9 75 -1 1 -189 22 -417 48 -228 26 -668 76 -978 111 -309 36
-565 65 -567 65 -3 0 -5 -37 -5 -82z"/>
<path d="M1640 2215 c-112 -31 -115 -33 -118 -61 -3 -38 -52 -1341 -52 -1390
l0 -37 -239 6 -240 7 -5 -43 c-3 -23 -8 -112 -11 -197 -3 -85 -8 -182 -11
-216 l-6 -60 439 -73 c241 -40 448 -75 459 -78 22 -5 22 -3 28 234 3 131 8
275 11 321 l5 82 -94 0 -95 0 -6 43 c-3 23 1 240 9 482 9 242 16 468 16 503
l0 62 -36 0 c-34 0 -35 1 -32 33 3 29 7 33 44 41 l41 9 6 181 c3 100 5 181 4
182 -1 0 -54 -14 -117 -31z"/>
<path d="M4200 2130 c0 -11 7 -20 15 -20 8 0 159 -13 337 -30 177 -16 332 -30
345 -30 13 0 23 -6 23 -14 0 -21 113 -27 209 -12 78 13 110 11 539 -30 489
-47 488 -47 480 -39 -3 3 -421 46 -929 95 -508 49 -945 92 -971 95 -44 5 -48
4 -48 -15z"/>
<path d="M5525 1930 c-256 -32 -283 -37 -195 -39 36 0 155 10 264 24 110 14
203 25 208 25 4 0 8 5 8 10 0 14 -36 12 -285 -20z"/>
<path d="M530 1646 l-105 -23 147 -8 c177 -9 221 -3 216 28 -3 20 -9 22 -78
24 -46 1 -116 -7 -180 -21z m203 -5 c15 -1 27 -5 27 -11 0 -6 -28 -10 -65 -10
-36 0 -65 4 -65 9 0 10 35 19 60 15 8 -1 27 -3 43 -3z"/>
<path d="M3290 896 l0 -606 98 0 c53 0 107 3 120 6 l23 7 -3 587 c-2 324 -5
590 -8 593 -3 3 -56 8 -117 12 l-113 7 0 -606z"/>
<path d="M2552 341 c-2 -92 -2 -93 21 -87 12 3 27 6 34 6 6 0 13 22 15 55 l3
55 -32 0 c-28 0 -32 3 -36 33 -2 17 -5 -10 -5 -62z"/>
<path d="M4919 390 c-26 -4 -156 -11 -290 -14 -134 -3 -277 -8 -316 -12 l-73
-7 0 -56 c0 -31 4 -61 8 -67 4 -6 162 -25 382 -45 l375 -34 1050 66 c578 37
1032 67 1010 68 -22 1 -213 13 -425 27 -212 14 -403 26 -425 25 -22 0 -252 13
-513 29 -465 30 -692 35 -783 20z"/>
<path d="M2668 363 c-14 -3 -18 -15 -18 -55 l0 -51 107 6 c58 4 124 7 145 7
38 0 39 1 36 33 -2 27 -8 33 -30 35 -16 2 -28 9 -28 18 0 11 -19 14 -97 13
-54 -1 -106 -3 -115 -6z"/>
<path d="M3940 351 l-85 -6 -3 -37 -3 -36 68 -7 c37 -3 78 -8 91 -11 21 -4 22
-1 22 51 0 30 -1 54 -2 53 -2 -1 -41 -4 -88 -7z"/>
<path d="M2970 303 l0 -30 128 4 c70 3 133 7 141 9 29 10 -6 22 -79 28 -41 4
-101 9 -132 12 l-58 7 0 -30z"/>
<path d="M3355 235 c-247 -13 -530 -26 -627 -31 l-178 -7 0 -28 c0 -27 2 -29
43 -29 23 0 337 16 697 35 360 19 672 35 693 35 25 0 37 4 37 14 0 8 -3 17 -7
19 -26 15 -267 12 -658 -8z"/>
</g>
</svg>
