<?xml version="1.0" standalone="no"?>
<!DOCTYPE svg PUBLIC "-//W3C//DTD SVG 20010904//EN"
 "http://www.w3.org/TR/2001/REC-SVG-20010904/DTD/svg10.dtd">
<svg version="1.0" xmlns="http://www.w3.org/2000/svg"
 width="90.000000pt" height="87.000000pt" viewBox="0 0 90.000000 87.000000"
 preserveAspectRatio="xMidYMid meet">

<g transform="translate(0.000000,87.000000) scale(0.100000,-0.100000)"
fill="#000000" stroke="none">
<path d="M677 860 c-43 -13 -93 -55 -107 -89 -11 -28 -17 -31 -56 -31 -55 0
-58 -16 -5 -25 33 -5 40 -11 43 -36 4 -28 3 -29 -31 -26 -52 3 -53 -14 -1 -29
50 -15 106 -70 116 -112 10 -45 13 -52 25 -52 8 0 10 12 6 35 -6 34 -5 35 21
29 39 -10 42 -13 42 -40 0 -16 5 -24 13 -21 6 2 12 16 12 31 0 22 8 30 41 45
124 56 135 220 20 299 -36 25 -99 35 -139 22z m113 -128 c0 -4 -20 -28 -45
-52 l-45 -44 -22 22 c-24 24 -18 43 7 22 14 -12 21 -8 53 23 36 36 52 45 52
29z"/>
<path d="M82 824 c-80 -52 -99 -115 -68 -232 36 -134 199 -340 376 -473 132
-100 291 -144 369 -102 41 22 106 122 97 150 -7 23 -200 153 -226 153 -10 0
-36 -21 -58 -47 l-41 -48 -46 24 c-60 31 -204 176 -236 235 l-24 46 48 44 c26
24 47 51 47 59 0 18 -115 197 -138 215 -24 18 -42 14 -100 -24z m147 -87 c33
-51 61 -98 61 -104 0 -6 -20 -27 -45 -47 -26 -22 -45 -46 -45 -57 0 -75 254
-329 329 -329 11 0 35 19 57 45 20 25 41 45 47 45 17 0 197 -121 197 -133 0
-18 -62 -107 -81 -117 -31 -17 -125 -11 -184 11 -166 62 -406 292 -496 474
-36 73 -51 185 -30 224 13 23 96 81 117 81 6 0 39 -42 73 -93z"/>
<path d="M470 562 c0 -5 15 -15 33 -23 18 -8 38 -28 47 -46 17 -37 37 -38 32
-2 -4 32 -56 79 -87 79 -14 0 -25 -4 -25 -8z"/>
</g>
</svg>
