<?xml version="1.0" standalone="no"?>
<!DOCTYPE svg PUBLIC "-//W3C//DTD SVG 20010904//EN"
 "http://www.w3.org/TR/2001/REC-SVG-20010904/DTD/svg10.dtd">
<svg version="1.0" xmlns="http://www.w3.org/2000/svg"
 width="90.000000pt" height="88.000000pt" viewBox="0 0 90.000000 88.000000"
 preserveAspectRatio="xMidYMid meet">

<g transform="translate(0.000000,88.000000) scale(0.100000,-0.100000)"
fill="#000000" stroke="none">
<path d="M678 871 c-43 -14 -87 -50 -106 -86 l-17 -34 -66 54 -66 53 -72 -59
-73 -59 -69 0 -69 0 0 -55 0 -55 -70 -57 -70 -57 0 -258 0 -258 425 0 425 0 0
252 c0 240 -1 253 -20 273 l-21 22 35 35 c79 79 66 202 -28 266 -36 24 -99 35
-138 23z m-210 -83 c23 -18 42 -36 42 -40 0 -4 -42 -8 -92 -8 l-93 1 45 39
c25 22 48 40 51 40 3 0 24 -14 47 -32z m322 -46 c0 -4 -20 -28 -45 -52 l-45
-44 -22 22 c-24 24 -18 43 7 22 14 -12 21 -8 53 23 36 36 52 45 52 29z m-240
-52 l0 -30 -166 0 c-128 0 -165 -3 -162 -12 4 -10 49 -14 172 -16 l166 -2 37
-40 c19 -22 46 -43 59 -46 22 -6 24 -11 24 -74 l0 -68 -120 -96 c-66 -53 -126
-99 -133 -101 -6 -2 -68 42 -137 98 l-125 103 -3 144 c-1 79 0 150 2 157 4 10
49 13 196 13 l190 0 0 -30z m-412 -220 l-3 -40 -45 36 c-25 20 -45 39 -45 44
0 5 20 24 45 44 l45 36 3 -40 c2 -22 2 -58 0 -80z m656 55 c11 -8 18 -16 15
-18 -2 -2 -25 -20 -51 -41 l-48 -38 0 50 c0 48 2 51 28 55 15 2 29 5 32 5 3 1
14 -5 24 -13z m-643 -142 c60 -49 109 -90 109 -93 0 -10 -212 -230 -221 -230
-5 0 -9 87 -9 205 0 113 3 205 6 205 4 0 56 -39 115 -87z m669 -125 l0 -213
-120 120 c-95 95 -117 122 -107 132 28 28 212 173 219 173 5 0 8 -96 8 -212z
m-463 -42 l66 -55 69 56 69 56 28 -29 c15 -16 67 -71 116 -121 l89 -93 -375 0
-374 0 120 120 c66 66 121 120 123 120 2 0 33 -24 69 -54z"/>
<path d="M228 564 c-21 -20 7 -24 187 -24 149 0 195 3 195 13 0 9 -46 13 -188
15 -103 2 -190 0 -194 -4z"/>
<path d="M220 455 c0 -12 16 -15 80 -15 64 0 80 3 80 15 0 12 -16 15 -80 15
-64 0 -80 -3 -80 -15z"/>
<path d="M510 455 c0 -11 12 -15 50 -15 38 0 50 4 50 15 0 11 -12 15 -50 15
-38 0 -50 -4 -50 -15z"/>
</g>
</svg>
