<?xml version="1.0" standalone="no"?>
<!DOCTYPE svg PUBLIC "-//W3C//DTD SVG 20010904//EN"
 "http://www.w3.org/TR/2001/REC-SVG-20010904/DTD/svg10.dtd">
<svg version="1.0" xmlns="http://www.w3.org/2000/svg"
 width="90.000000pt" height="87.000000pt" viewBox="0 0 90.000000 87.000000"
 preserveAspectRatio="xMidYMid meet">

<g transform="translate(0.000000,87.000000) scale(0.100000,-0.100000)"
fill="#000000" stroke="none">
<path d="M675 860 c-16 -5 -43 -21 -60 -34 l-30 -24 -45 27 c-59 34 -154 36
-216 4 -147 -78 -165 -251 -49 -470 l33 -63 -92 0 c-50 0 -96 -4 -101 -8 -10
-6 -115 -268 -115 -284 0 -5 191 -8 425 -8 393 0 425 1 425 17 0 19 -88 252
-103 271 -6 8 -40 12 -103 12 l-94 0 29 53 c16 28 39 80 51 114 l22 62 44 -6
c148 -20 253 141 171 263 -42 63 -124 95 -192 74z m-138 -57 c28 -21 29 -26
17 -88 -9 -45 12 -109 46 -142 l30 -29 -19 -55 c-38 -111 -160 -314 -184 -307
-22 7 -137 191 -169 272 -26 65 -32 96 -32 157 -1 67 2 81 29 124 43 70 99 98
187 93 49 -3 75 -9 95 -25z m253 -71 c0 -4 -20 -28 -45 -52 l-45 -44 -22 22
c-24 24 -18 43 7 22 14 -12 21 -8 53 23 36 36 52 45 52 29z m-538 -550 c37
-48 67 -91 68 -97 2 -20 -142 -64 -212 -64 -37 -1 -69 2 -71 7 -3 4 16 60 41
125 45 114 47 117 76 117 27 -1 40 -12 98 -88z m120 23 c26 -36 52 -65 57 -65
6 0 31 29 56 65 l47 65 103 0 c94 0 103 -2 108 -20 3 -11 2 -22 -1 -24 -9 -5
-378 -136 -384 -136 -6 0 -138 168 -138 175 0 3 24 5 53 5 l52 0 47 -65z m419
-85 c39 -101 39 -102 -23 -98 -51 3 -54 5 -100 63 -26 32 -48 62 -48 65 0 8
112 49 128 47 8 -1 27 -36 43 -77z m-158 -29 c20 -27 37 -54 37 -60 0 -8 -62
-11 -202 -11 -111 0 -198 3 -194 7 10 10 288 112 306 112 8 0 32 -22 53 -48z"/>
<path d="M372 714 c-60 -41 -65 -123 -11 -168 35 -30 76 -33 119 -11 37 19 50
43 50 92 -1 80 -94 132 -158 87z m116 -40 c12 -14 22 -36 22 -50 0 -29 -49
-84 -75 -84 -24 0 -72 27 -79 45 -36 94 66 162 132 89z"/>
</g>
</svg>
