<?xml version="1.0" standalone="no"?>
<!DOCTYPE svg PUBLIC "-//W3C//DTD SVG 20010904//EN"
 "http://www.w3.org/TR/2001/REC-SVG-20010904/DTD/svg10.dtd">
<svg version="1.0" xmlns="http://www.w3.org/2000/svg"
 width="185.000000pt" height="140.000000pt" viewBox="0 0 185.000000 140.000000"
 preserveAspectRatio="xMidYMid meet">

<g transform="translate(0.000000,140.000000) scale(0.100000,-0.100000)"
fill="#000000" stroke="none">
<path d="M904 1017 c-29 -26 -49 -37 -52 -29 -2 7 -21 12 -43 12 l-39 0 0 -53
c0 -51 -3 -56 -46 -96 -46 -44 -54 -73 -20 -79 10 -2 29 6 42 19 l24 22 0 -51
c0 -52 0 -52 -27 -46 -16 4 -34 16 -41 26 -15 20 -52 24 -70 6 -8 -8 -11 -42
-10 -97 l2 -86 5 90 6 90 30 0 30 0 3 -132 3 -133 -35 0 c-28 0 -36 4 -39 23
-5 19 -5 19 -4 -3 2 -21 8 -26 37 -28 24 -3 38 2 47 14 11 16 17 15 90 -11 83
-29 87 -29 259 -4 73 11 76 13 160 86 65 57 84 80 82 96 -4 28 -41 34 -74 13
-13 -9 -35 -23 -49 -32 l-25 -16 0 98 0 97 23 -21 c28 -26 40 -27 57 -7 11 13
7 22 -25 55 -21 22 -41 38 -43 35 -3 -2 10 -16 27 -30 31 -27 42 -65 19 -65
-7 1 -67 50 -132 110 l-119 109 -119 -110 c-111 -103 -136 -119 -145 -92 -5
15 246 243 267 243 10 0 23 -7 30 -15 7 -9 40 -38 74 -66 l61 -51 -70 67 c-98
93 -94 92 -151 42z m-64 -45 c0 -10 -13 -28 -30 -40 l-30 -23 0 41 c0 38 2 40
30 40 22 0 30 -5 30 -18z m215 -75 l85 -78 0 -103 c0 -66 -4 -106 -12 -114
-21 -21 -54 -14 -66 13 -7 14 -19 28 -27 31 -11 5 -15 23 -15 75 l0 69 -60 0
-60 0 0 -60 c0 -36 -4 -60 -11 -60 -6 0 -33 10 -60 21 l-49 21 0 57 0 56 86
78 c47 43 90 77 95 75 4 -2 47 -38 94 -81z m-45 -179 l0 -63 -50 3 -50 4 0 59
0 59 50 0 50 0 0 -62z m-175 -39 c27 -12 82 -25 124 -31 51 -6 80 -14 89 -25
21 -28 14 -34 -30 -29 -89 11 -184 15 -150 7 18 -5 79 -12 136 -16 l103 -7 71
46 c76 49 99 56 109 29 5 -11 -9 -30 -48 -65 -100 -90 -112 -95 -249 -113
l-125 -17 -75 29 -75 29 -3 92 -3 92 39 0 c22 0 61 -10 87 -21z"/>
</g>
</svg>
