<?xml version="1.0" standalone="no"?>
<!DOCTYPE svg PUBLIC "-//W3C//DTD SVG 20010904//EN"
 "http://www.w3.org/TR/2001/REC-SVG-20010904/DTD/svg10.dtd">
<svg version="1.0" xmlns="http://www.w3.org/2000/svg"
 width="185.000000pt" height="140.000000pt" viewBox="0 0 185.000000 140.000000"
 preserveAspectRatio="xMidYMid meet">

<g transform="translate(0.000000,140.000000) scale(0.100000,-0.100000)"
fill="#000000" stroke="none">
<path d="M853 1034 c-67 -33 -93 -126 -54 -190 l19 -31 -89 -89 -89 -88 27
-28 c20 -21 30 -25 40 -17 11 9 13 -1 13 -55 0 -59 -2 -66 -20 -66 -11 0 -20
-4 -20 -10 0 -6 87 -10 240 -10 153 0 240 4 240 10 0 6 -11 10 -25 10 -24 0
-25 2 -25 66 0 59 2 65 15 54 13 -11 20 -9 40 10 30 28 31 41 5 65 -15 14 -20
31 -20 71 0 73 -6 84 -47 84 -26 0 -36 -5 -40 -20 -6 -24 -16 -25 -32 -6 -9
11 -7 23 9 52 25 49 25 90 0 132 -40 66 -119 89 -187 56z m143 -19 c28 -18 54
-70 54 -107 0 -13 -9 -37 -20 -55 -46 -75 -148 -84 -208 -18 -31 34 -34 41
-30 86 6 54 26 84 73 105 36 17 96 12 131 -11z m134 -255 l0 -51 -30 23 c-21
15 -30 30 -30 50 0 24 4 28 30 28 29 0 30 -1 30 -50z m-263 27 c22 -12 20 -16
-76 -104 -93 -87 -100 -91 -115 -74 -9 10 -16 22 -16 27 0 12 162 163 175 163
6 0 20 -5 32 -12z m233 -72 l85 -85 -21 -20 -20 -20 -99 94 c-98 92 -99 94
-75 104 14 6 30 11 35 11 6 1 48 -37 95 -84z m-83 -17 l83 -83 0 -72 0 -73
-60 0 c-58 0 -60 1 -60 25 0 36 -44 78 -73 70 -30 -9 -47 -33 -47 -67 0 -28
-1 -28 -60 -28 l-60 0 0 72 0 73 82 82 c46 46 89 83 98 83 8 0 52 -37 97 -82z
m-59 -190 l3 -38 -45 0 c-40 0 -46 3 -46 21 0 40 19 60 53 57 29 -3 32 -6 35
-40z"/>
<path d="M891 979 c-26 -25 -27 -45 -1 -61 13 -8 20 -24 20 -42 0 -28 0 -29
-20 -11 -11 10 -20 13 -20 7 0 -6 11 -19 24 -27 20 -14 28 -14 45 -3 30 18 32
33 10 61 -10 14 -19 38 -19 54 1 25 2 26 14 11 7 -10 17 -18 21 -18 11 0 -15
29 -35 40 -12 7 -23 3 -39 -11z m19 -31 c0 -30 -1 -31 -17 -16 -13 14 -14 20
-3 32 18 22 20 20 20 -16z m40 -68 c0 -10 -4 -22 -10 -25 -6 -4 -10 7 -10 25
0 18 4 29 10 25 6 -3 10 -15 10 -25z"/>
<path d="M862 653 l3 -58 55 0 55 0 3 58 3 57 -61 0 -61 0 3 -57z m48 27 c0
-13 -7 -20 -20 -20 -13 0 -20 7 -20 20 0 13 7 20 20 20 13 0 20 -7 20 -20z
m50 0 c0 -11 -7 -20 -15 -20 -8 0 -15 9 -15 20 0 11 7 20 15 20 8 0 15 -9 15
-20z m-50 -50 c0 -13 -7 -20 -20 -20 -13 0 -20 7 -20 20 0 13 7 20 20 20 13 0
20 -7 20 -20z m50 0 c0 -11 -7 -20 -15 -20 -8 0 -15 9 -15 20 0 11 7 20 15 20
8 0 15 -9 15 -20z"/>
<path d="M730 1015 c0 -2 10 -10 23 -16 20 -11 21 -11 8 4 -13 16 -31 23 -31
12z"/>
<path d="M1080 1010 c-8 -5 -12 -11 -10 -14 3 -2 14 2 24 10 22 15 10 19 -14
4z"/>
<path d="M713 913 c9 -2 23 -2 30 0 6 3 -1 5 -18 5 -16 0 -22 -2 -12 -5z"/>
<path d="M1098 913 c6 -2 18 -2 25 0 6 3 1 5 -13 5 -14 0 -19 -2 -12 -5z"/>
<path d="M740 820 c-8 -5 -10 -10 -5 -10 6 0 17 5 25 10 8 5 11 10 5 10 -5 0
-17 -5 -25 -10z"/>
<path d="M610 460 c0 -5 7 -10 15 -10 8 0 15 5 15 10 0 6 -7 10 -15 10 -8 0
-15 -4 -15 -10z"/>
<path d="M1200 460 c0 -5 5 -10 10 -10 6 0 10 5 10 10 0 6 -4 10 -10 10 -5 0
-10 -4 -10 -10z"/>
</g>
</svg>
