<?xml version="1.0" standalone="no"?>
<!DOCTYPE svg PUBLIC "-//W3C//DTD SVG 20010904//EN"
 "http://www.w3.org/TR/2001/REC-SVG-20010904/DTD/svg10.dtd">
<svg version="1.0" xmlns="http://www.w3.org/2000/svg"
 width="185.000000pt" height="140.000000pt" viewBox="0 0 185.000000 140.000000"
 preserveAspectRatio="xMidYMid meet">

<g transform="translate(0.000000,140.000000) scale(0.100000,-0.100000)"
fill="#000000" stroke="none">
<path d="M870 1002 c-43 -24 -59 -38 -47 -40 14 -3 17 -15 17 -78 l0 -74 35 0
c33 0 35 2 35 35 0 32 2 35 30 35 28 0 30 -3 30 -35 0 -34 1 -35 40 -35 l40 0
0 75 c0 65 2 75 18 75 9 0 -14 18 -53 40 -38 22 -72 40 -75 39 -3 0 -34 -16
-70 -37z m160 -103 c0 -78 0 -79 -25 -79 -23 0 -25 4 -25 41 l0 40 -37 -3
c-36 -3 -38 -5 -41 -40 -3 -33 -7 -38 -28 -38 -23 0 -24 2 -24 80 l0 80 47 23
46 24 44 -24 43 -25 0 -79z"/>
<path d="M640 837 c0 -3 29 -24 65 -46 l64 -41 -47 -75 c-35 -56 -52 -75 -64
-71 -31 7 -19 -8 27 -38 35 -21 49 -25 59 -17 11 9 30 -4 89 -59 81 -75 90
-78 154 -45 24 13 63 57 63 73 0 5 18 17 41 27 34 16 42 16 49 5 10 -16 32 -7
80 30 20 15 21 20 8 20 -15 0 -108 128 -108 148 0 4 25 23 55 41 31 19 58 38
62 44 7 12 4 10 -109 -61 -49 -30 -88 -60 -88 -67 0 -8 -26 -14 -80 -18 -88
-6 -121 -1 -114 16 2 7 -40 39 -93 72 -104 65 -113 69 -113 62z m165 -109 c14
-6 25 -15 25 -20 0 -5 -23 -42 -50 -83 l-51 -75 -25 16 c-13 9 -23 20 -22 23
5 11 93 151 95 151 1 0 14 -5 28 -12z m351 -64 l48 -77 -24 -19 c-27 -22 -23
-25 -84 67 l-46 70 21 18 c12 9 25 17 29 17 5 0 30 -34 56 -76z m-286 6 c12
-8 11 -13 -8 -33 -29 -31 -28 -55 4 -69 22 -10 32 -9 65 10 21 12 40 22 42 22
2 0 18 -18 36 -41 25 -31 31 -43 22 -52 -9 -9 -20 -2 -46 28 -19 22 -34 35
-35 29 0 -5 14 -23 30 -39 28 -27 41 -65 21 -65 -5 0 -28 21 -50 46 -23 26
-41 43 -41 38 1 -5 14 -25 30 -44 30 -34 39 -60 20 -60 -5 0 -28 19 -51 43
-39 40 -40 40 -15 6 26 -36 33 -59 18 -59 -4 0 -40 33 -80 73 l-72 72 35 53
c36 52 48 59 75 42z m210 -31 c12 -16 20 -33 16 -36 -3 -3 -31 -1 -62 6 -51
10 -60 9 -89 -9 -70 -43 -121 -13 -69 41 26 27 33 29 105 29 75 0 78 -1 99
-31z m14 -56 c18 -5 18 -7 -5 -24 -13 -10 -28 -19 -33 -19 -12 0 -56 41 -56
52 0 8 49 3 94 -9z"/>
</g>
</svg>
