<?xml version="1.0" standalone="no"?>
<!DOCTYPE svg PUBLIC "-//W3C//DTD SVG 20010904//EN"
 "http://www.w3.org/TR/2001/REC-SVG-20010904/DTD/svg10.dtd">
<svg version="1.0" xmlns="http://www.w3.org/2000/svg"
 width="400.000000pt" height="400.000000pt" viewBox="0 0 400.000000 400.000000"
 preserveAspectRatio="xMidYMid meet">

<g transform="translate(0.000000,400.000000) scale(0.100000,-0.100000)"
fill="#000000" stroke="none">
<path d="M110 2000 l0 -1890 1890 0 1890 0 0 1890 0 1890 -1890 0 -1890 0 0
-1890z m3770 0 l0 -1880 -1880 0 -1880 0 0 1880 0 1880 1880 0 1880 0 0 -1880z"/>
<path d="M2780 2364 l0 -1104 115 0 115 0 0 1053 0 1053 -115 51 -115 51 0
-1104z"/>
<path d="M2695 3440 c-3 -6 1 -7 9 -4 18 7 21 14 7 14 -6 0 -13 -4 -16 -10z"/>
<path d="M2268 2893 c-2 -5 -1 -231 2 -503 l5 -495 3 503 c1 276 0 502 -2 502
-3 0 -6 -3 -8 -7z"/>
<path d="M2338 2349 l-3 -553 -70 104 c-38 58 -77 112 -85 120 -9 9 -96 127
-194 263 l-179 247 -128 0 -128 0 -472 -592 c-260 -326 -488 -612 -507 -635
l-34 -43 123 0 124 1 489 614 489 614 276 -383 c152 -211 350 -487 441 -614
164 -230 165 -231 203 -231 20 -1 37 2 37 6 0 8 -110 160 -172 237 l-48 60 0
635 0 636 -67 29 c-37 15 -73 30 -80 33 -10 4 -13 -102 -15 -548z"/>
<path d="M3184 2768 c-4 -7 -3 -8 4 -4 9 5 12 -179 12 -743 l0 -751 -40 0 -40
0 0 723 c0 564 3 726 13 737 10 12 9 12 -5 1 -17 -13 -18 -60 -18 -742 l0
-729 50 0 50 0 0 760 c0 468 -4 760 -9 760 -6 0 -13 -5 -17 -12z"/>
<path d="M3260 2020 l0 -760 75 0 75 0 0 730 0 730 -66 30 c-37 16 -71 30 -75
30 -5 0 -9 -341 -9 -760z"/>
<path d="M1339 2533 c-9 -2 -83 -88 -165 -191 -82 -103 -310 -389 -507 -635
-227 -285 -351 -447 -338 -445 11 2 217 252 516 628 574 720 518 650 514 649
-2 -1 -11 -3 -20 -6z"/>
<path d="M1488 2532 c-22 -9 -1021 -1262 -1013 -1270 3 -4 12 -2 20 3 12 9
991 1233 1009 1263 8 13 8 13 -16 4z"/>
<path d="M895 1898 c-278 -348 -500 -635 -494 -637 6 -2 21 7 34 20 12 13 235
292 495 619 260 327 480 603 488 613 14 15 13 17 -2 17 -10 0 -214 -248 -521
-632z"/>
<path d="M3580 1815 l0 -555 55 0 55 0 0 534 c0 500 -1 534 -17 539 -10 3 -35
12 -55 21 l-38 16 0 -555z"/>
<path d="M3520 2353 c0 -5 0 -250 0 -545 0 -533 0 -538 -20 -538 -20 0 -20 5
-20 523 0 404 3 526 13 537 10 12 9 12 -5 1 -17 -13 -18 -50 -18 -542 l0 -529
30 0 30 0 0 550 c0 303 -2 550 -5 550 -3 0 -5 -3 -5 -7z"/>
<path d="M1600 1900 l0 -70 70 0 70 0 0 70 0 70 -70 0 -70 0 0 -70z"/>
<path d="M1782 1903 l-2 -73 70 0 70 0 -2 73 -2 72 -3 -67 -4 -68 -59 0 -59 0
-4 68 -3 67 -2 -72z"/>
<path d="M1600 1720 l0 -70 70 0 70 0 0 70 0 70 -70 0 -70 0 0 -70z m130 0 l0
-60 -60 0 -60 0 0 60 0 60 60 0 60 0 0 -60z"/>
<path d="M1780 1720 l0 -70 70 0 70 0 0 70 0 70 -70 0 -70 0 0 -70z"/>
<path d="M320 1155 c0 -13 194 -15 1685 -15 1491 0 1685 2 1685 15 0 13 -194
15 -1685 15 -1491 0 -1685 -2 -1685 -15z"/>
<path d="M2153 1067 c-43 -21 -50 -31 -35 -55 7 -10 19 -8 58 9 27 12 50 22
51 23 1 1 0 12 -4 24 -7 27 -16 27 -70 -1z"/>
<path d="M3067 1045 l-28 -35 32 0 c19 0 37 7 45 18 12 16 13 16 19 0 5 -12
18 -18 42 -18 l34 0 -27 35 c-37 49 -78 49 -117 0z"/>
<path d="M320 810 l0 -170 75 0 c121 0 165 28 165 105 0 26 -7 43 -25 59 -20
18 -22 25 -11 29 21 8 30 62 14 94 -17 36 -63 52 -150 52 l-68 1 0 -170z m135
86 c27 -19 13 -46 -25 -46 -27 0 -30 3 -30 30 0 34 22 40 55 16z m23 -128 c7
-7 12 -15 12 -19 0 -18 -34 -39 -61 -39 -27 0 -29 3 -29 35 0 33 2 35 33 35
18 0 38 -5 45 -12z"/>
<path d="M630 915 c0 -51 -3 -65 -15 -65 -10 0 -15 -11 -15 -35 0 -24 5 -35
15 -35 12 0 15 -14 15 -70 l0 -70 82 0 c107 0 158 23 187 84 36 73 23 164 -30
213 -29 27 -94 42 -176 43 l-63 0 0 -65z m183 -34 c11 -10 21 -38 24 -64 5
-41 2 -49 -25 -77 -23 -22 -40 -30 -66 -30 -34 0 -36 2 -36 35 0 31 3 35 25
35 22 0 25 4 25 35 0 31 -3 35 -25 35 -20 0 -25 5 -25 23 0 13 3 27 8 31 12
13 75 -2 95 -23z"/>
<path d="M1008 964 c-33 -17 -48 -43 -48 -81 0 -41 17 -60 86 -96 62 -34 76
-60 41 -81 -15 -9 -22 -6 -41 17 -17 21 -30 27 -59 27 -41 0 -43 -5 -23 -55
20 -48 53 -61 139 -57 41 3 87 52 87 94 0 47 -20 71 -85 102 -60 28 -76 49
-53 72 17 17 48 9 48 -12 0 -10 13 -14 45 -14 25 0 45 2 45 4 0 1 -5 17 -11
35 -20 56 -109 79 -171 45z"/>
<path d="M1380 811 l0 -171 40 0 40 0 0 55 0 55 50 0 c40 0 56 5 80 28 55 49
48 151 -12 183 -12 6 -61 14 -110 17 l-88 5 0 -172z m144 89 c18 -6 26 -17 26
-33 0 -32 -18 -47 -57 -47 -32 0 -33 1 -33 45 0 49 11 55 64 35z"/>
<path d="M1670 810 l0 -170 40 0 40 0 0 70 0 70 60 0 60 0 0 -70 0 -70 40 0
40 0 0 170 0 170 -40 0 -40 0 0 -65 0 -65 -60 0 -60 0 0 65 0 65 -40 0 -40 0
0 -170z"/>
<path d="M2116 948 c-8 -18 -39 -95 -69 -170 l-55 -138 42 0 c36 0 45 4 54 25
10 23 17 25 72 25 55 0 60 -2 66 -25 5 -22 12 -25 50 -25 24 0 44 4 44 8 0 4
-29 79 -64 167 -62 156 -65 160 -95 163 -27 3 -33 -1 -45 -30z m61 -120 c7
-24 15 -51 18 -60 6 -15 1 -18 -35 -18 -35 0 -41 3 -36 16 4 9 11 36 17 60 6
24 14 44 18 44 4 0 12 -19 18 -42z"/>
<path d="M2340 946 c0 -32 3 -35 33 -38 l32 -3 3 -132 3 -133 39 0 40 0 0 135
0 135 35 0 c33 0 35 2 35 35 l0 35 -110 0 -110 0 0 -34z"/>
<path d="M2740 810 l0 -170 90 0 90 0 0 35 0 35 -50 0 -50 0 0 135 0 135 -40
0 -40 0 0 -170z"/>
<path d="M3044 966 c-54 -24 -88 -79 -92 -150 -3 -51 0 -66 20 -95 46 -68 110
-95 188 -81 80 15 131 71 138 153 9 107 -54 179 -162 184 -37 2 -73 -2 -92
-11z m127 -66 c25 -14 49 -62 49 -99 0 -17 -11 -42 -26 -60 -21 -26 -33 -31
-69 -31 -57 0 -95 41 -95 102 0 73 78 121 141 88z"/>
<path d="M3425 957 c-47 -26 -85 -92 -85 -147 1 -163 208 -235 314 -110 37 45
34 60 -12 60 -28 0 -45 -7 -62 -25 -48 -51 -138 -22 -156 49 -24 98 89 168
156 96 22 -24 36 -30 69 -30 46 0 47 10 3 69 -47 63 -151 81 -227 38z"/>
<path d="M3090 560 c0 -28 3 -30 35 -30 32 0 35 2 35 30 0 28 -3 30 -35 30
-32 0 -35 -2 -35 -30z"/>
</g>
</svg>
